<svg width="113" height="86" fill="none" xmlns="http://www.w3.org/2000/svg"><path d="M6.729 5.612v74.405h36.998v-6.36h6.884l-.092 3.632V86H0V0h50.61v12.094h-6.883V5.612H6.73z" fill="#19E0BE"/><path d="M25.715 39.679c-1.063 0-2.032-.205-2.906-.614a7.412 7.412 0 01-2.241-1.678 7.701 7.701 0 01-1.454-2.373 7.668 7.668 0 01-.504-2.742 7.3 7.3 0 01.525-2.742 7.751 7.751 0 011.493-2.353 7.038 7.038 0 012.282-1.636c.874-.396 1.83-.594 2.866-.594 1.063 0 2.026.212 2.887.634.875.41 1.621.969 2.24 1.678a7.641 7.641 0 011.454 2.394c.336.873.505 1.767.505 2.68a7.21 7.21 0 01-.546 2.763 7.568 7.568 0 01-1.493 2.353 7.22 7.22 0 01-2.261 1.636c-.861.396-1.81.594-2.847.594zm-3.734-7.366c0 .75.141 1.46.424 2.128a3.926 3.926 0 001.272 1.616c.565.423 1.251.634 2.059.634.834 0 1.527-.218 2.079-.654a3.895 3.895 0 001.252-1.657 5.456 5.456 0 00.423-2.108c0-.75-.148-1.453-.444-2.107a3.758 3.758 0 00-1.271-1.617c-.552-.409-1.232-.613-2.04-.613-.834 0-1.534.218-2.099.654a3.968 3.968 0 00-1.251 1.637 5.537 5.537 0 00-.404 2.087zm12.854 7.243V25.029h3.29v5.627h1.131l3.997-5.627h3.674L41.8 32.047l5.57 7.509h-4.016l-4.199-5.852h-1.03v5.852h-3.29zM61.42 25.03v14.526h-3.31v-5.954h-5.713v5.954h-3.31V25.029h3.31v5.627h5.713v-5.627h3.31zm6.36 0h3.574l4.925 14.526h-3.391l-1.11-3.253h-4.462l-1.09 3.253h-3.391l4.946-14.527zm3.453 8.96l-1.676-5.585-1.716 5.586h3.392zM19.498 62.744V48.218h11.93v14.526h-3.31v-11.58h-5.31v11.58h-3.31zm14.744 0V48.218h6.117c.686 0 1.312.143 1.877.43a4.523 4.523 0 011.494 1.124c.417.464.74.99.969 1.576.229.586.343 1.18.343 1.78 0 .846-.195 1.644-.585 2.394a4.872 4.872 0 01-1.595 1.841c-.686.464-1.487.696-2.402.696h-2.907v4.685h-3.31zm3.31-7.61h2.706c.39 0 .727-.171 1.01-.512.282-.341.423-.84.423-1.494 0-.668-.168-1.16-.505-1.473-.322-.328-.672-.491-1.05-.491h-2.583v3.97zm19.34 4.664v2.946H46.82V48.218h9.892v2.946H50.13v2.823h5.652v2.721H50.13v3.09h6.762zm13.316 2.946V54.09l-3.088 6.3h-1.817l-3.089-6.301v8.654h-3.31V48.218h3.593l3.714 7.59 3.735-7.59h3.573v14.526h-3.31zm6.124 0V48.218h3.31v5.012h2.665c1.588 0 2.826.423 3.714 1.269.902.845 1.353 1.998 1.353 3.458 0 1.446-.43 2.605-1.292 3.478-.861.873-2.06 1.31-3.593 1.31h-6.157zm3.31-2.741h2.362c.687 0 1.191-.191 1.514-.573.323-.382.485-.873.485-1.473 0-.519-.162-.976-.485-1.371-.31-.41-.814-.614-1.514-.614h-2.362v4.03zm19.654-.205v2.946H89.223V48.218h9.891v2.946h-6.58v2.823h5.652v2.721h-5.652v3.09h6.762zm2.011 2.946V48.218h6.117c.686 0 1.312.143 1.877.43a4.519 4.519 0 011.494 1.124c.417.464.74.99.969 1.576.229.586.343 1.18.343 1.78 0 .846-.195 1.644-.585 2.394a4.878 4.878 0 01-1.595 1.841c-.686.464-1.487.696-2.402.696h-2.907v4.685h-3.311zm3.311-7.61h2.705c.39 0 .727-.171 1.009-.512.283-.341.424-.84.424-1.494 0-.668-.168-1.16-.505-1.473-.323-.328-.672-.491-1.049-.491h-2.584v3.97z" fill="#fff"/></svg>