<svg width="73" height="56" fill="none" xmlns="http://www.w3.org/2000/svg"><path d="M4.382 3.655v48.449h24.092v-4.141h4.482l-.06 2.365V56H0V0h32.956v7.875h-4.482v-4.22H4.382z" fill="#19E0BE"/><path d="M16.745 25.838a4.413 4.413 0 01-1.893-.4 4.828 4.828 0 01-1.459-1.092 5.013 5.013 0 01-.946-1.546 4.991 4.991 0 01-.329-1.785c0-.622.114-1.217.342-1.785.236-.578.56-1.088.972-1.533a4.573 4.573 0 011.486-1.065 4.477 4.477 0 011.866-.387c.693 0 1.32.138 1.88.413a4.37 4.37 0 011.46 1.093c.411.462.727.981.946 1.558.219.569.328 1.15.328 1.746 0 .622-.118 1.221-.355 1.798a4.929 4.929 0 01-.972 1.533 4.694 4.694 0 01-1.473 1.065 4.388 4.388 0 01-1.853.387zm-2.432-4.797c0 .489.092.95.276 1.386.184.426.46.777.828 1.053.368.275.815.413 1.341.413.543 0 .995-.143 1.354-.427.368-.284.64-.644.815-1.079a3.55 3.55 0 00.276-1.372 3.29 3.29 0 00-.29-1.372 2.448 2.448 0 00-.827-1.053c-.36-.266-.802-.4-1.328-.4-.543 0-.999.142-1.367.427-.36.275-.63.63-.815 1.066a3.604 3.604 0 00-.263 1.358zm8.37 4.717v-9.46h2.143v3.664h.736l2.603-3.663h2.392l-3.339 4.57 3.628 4.889H28.23l-2.734-3.81h-.67v3.81h-2.143zm17.312-9.459v9.459h-2.156V21.88h-3.72v3.877h-2.156v-9.46h2.156v3.664h3.72V16.3h2.156zm4.141 0h2.327l3.207 9.459h-2.208l-.723-2.118h-2.905l-.71 2.118h-2.208l3.22-9.46zm2.248 5.835l-1.091-3.637-1.117 3.637h2.208zM12.696 40.857v-9.46h7.769v9.46h-2.156v-7.54h-3.457v7.54h-2.156zm9.601 0v-9.46h3.983c.447 0 .854.094 1.223.28.376.178.7.423.972.733a3.33 3.33 0 01.855 2.185 3.34 3.34 0 01-.381 1.56 3.172 3.172 0 01-1.039 1.198c-.447.302-.968.453-1.564.453h-1.893v3.051h-2.156zm2.156-4.956h1.761c.255 0 .474-.11.658-.333.184-.222.276-.546.276-.973 0-.435-.11-.755-.329-.959-.21-.213-.438-.32-.683-.32h-1.683v2.585zm12.593 3.038v1.918h-6.559v-9.46h6.441v1.92h-4.285v1.838h3.68v1.772h-3.68v2.012h4.403zm8.671 1.918v-5.635l-2.011 4.103h-1.183l-2.011-4.103v5.635h-2.156v-9.46h2.34l2.418 4.944 2.432-4.943h2.327v9.46h-2.156zm3.987 0v-9.46h2.156v3.265h1.735c1.034 0 1.84.275 2.419.826.587.55.88 1.301.88 2.252 0 .941-.28 1.696-.84 2.265-.562.568-1.341.852-2.34.852h-4.01zm2.156-1.785h1.538c.447 0 .776-.124.986-.373.21-.249.315-.569.315-.96a1.37 1.37 0 00-.315-.892c-.202-.266-.53-.4-.986-.4H51.86v2.625zm12.798-.133v1.918h-6.56v-9.46h6.442v1.92h-4.286v1.838h3.68v1.772h-3.68v2.012h4.404zm1.31 1.918v-9.46h3.982c.447 0 .855.094 1.223.28.377.178.7.423.973.733A3.33 3.33 0 0173 34.596a3.34 3.34 0 01-.381 1.56 3.172 3.172 0 01-1.039 1.198c-.447.302-.968.453-1.564.453h-1.893v3.051h-2.156zm2.155-4.956h1.762c.254 0 .473-.11.657-.333.184-.222.276-.546.276-.973 0-.435-.11-.755-.329-.959-.21-.213-.438-.32-.683-.32h-1.683v2.585z" fill="#212B31"/></svg>