<svg width="207" height="152" fill="none" xmlns="http://www.w3.org/2000/svg"><path d="M11.893 9.92v131.505h65.393v-11.24H89.45l-.161 6.418V152H0V0h89.451v21.375H77.286V9.92H11.893z" fill="#19E0BE"/><path d="M49.661 58.123c0 2.45-.433 4.597-1.299 6.442-.866 1.846-2.107 3.27-3.725 4.273-1.607 1.003-3.452 1.504-5.537 1.504-2.063 0-3.903-.496-5.52-1.487-1.618-.991-2.871-2.404-3.76-4.238-.889-1.846-1.339-3.965-1.35-6.358v-1.23c0-2.45.438-4.603 1.316-6.46.888-1.869 2.136-3.299 3.742-4.29 1.618-1.002 3.464-1.504 5.537-1.504 2.074 0 3.914.502 5.52 1.504 1.618.991 2.866 2.421 3.743 4.29.889 1.857 1.333 4.005 1.333 6.443v1.11zm-5.195-1.128c0-2.61-.467-4.592-1.401-5.948-.935-1.355-2.268-2.033-4-2.033-1.72 0-3.047.672-3.981 2.016-.935 1.333-1.408 3.293-1.419 5.88v1.213c0 2.54.467 4.511 1.401 5.913.935 1.401 2.28 2.102 4.034 2.102 1.72 0 3.042-.672 3.965-2.017.922-1.356 1.39-3.327 1.4-5.913v-1.213zm18.088 2.836h-2.956V70H54.47V45.117h5.127v9.964h2.341l6.084-9.964h6.255l-7.673 11.775L75.08 70h-6.118l-6.409-10.169zM98.365 70h-5.127V59.336h-9.997V70h-5.127V45.117h5.127V55.2h9.997V45.117h5.127V70zm19.9-5.127h-8.989L107.567 70h-5.452l9.263-24.883h4.751L125.443 70h-5.452l-1.726-5.127zm-7.605-4.153h6.221l-3.127-9.314-3.094 9.314zM49.49 115h-5.144V94.27h-9.963V115h-5.127V90.117H49.49V115zm10.689-8.767V115h-5.127V90.117h9.707c1.868 0 3.51.342 4.922 1.026 1.424.683 2.518 1.657 3.281 2.922.763 1.253 1.145 2.683 1.145 4.29 0 2.438-.837 4.363-2.512 5.776-1.663 1.401-3.97 2.102-6.921 2.102h-4.495zm0-4.153h4.58c1.356 0 2.387-.319 3.093-.957.718-.638 1.077-1.55 1.077-2.734 0-1.22-.359-2.205-1.077-2.957-.718-.752-1.709-1.14-2.973-1.162h-4.7v7.81zm33.486 2.136h-9.843v6.665h11.552V115h-16.68V90.117H95.34v4.153H83.822v5.93h9.843v4.016zm12.466-14.099l6.392 18.047 6.357-18.047h6.734V115h-5.144v-6.802l.513-11.74L114.266 115h-3.52l-6.7-18.525.513 11.723V115h-5.127V90.117h6.699zm39.93 0h5.144V115h-5.144V98.474L136.097 115h-5.126V90.117h5.126v16.56l9.964-16.56zm19.968 11.758l4.529-11.758h5.537l-8.699 20.525-.7 1.35c-1.288 2.245-3.259 3.367-5.913 3.367l-1.795-.068-.051-4.119c.273.045.718.068 1.333.068.718 0 1.293-.125 1.726-.376.444-.25.815-.712 1.111-1.384l.632-1.624-8.733-17.739h5.52l5.503 11.758zm20.533-11.758l6.391 18.047 6.358-18.047h6.733V115H200.9v-6.802l.513-11.74L194.696 115h-3.52l-6.699-18.525.512 11.723V115h-5.126V90.117h6.699z" fill="#fff"/></svg>