<svg xmlns="http://www.w3.org/2000/svg" xmlns:xlink="http://www.w3.org/1999/xlink"><defs>
<clipPath id="clip0">
<rect width="48" height="48" fill="white"/>
</clipPath>
</defs><symbol id="arr-left" viewBox="0 0 10 16">
<path d="M9.62947 1.54478L8.32542 0.240723L0.501099 8.06504L8.32542 15.8894L9.62947 14.5853L3.10921 8.06504L9.62947 1.54478Z" fill="#212B31"/>
</symbol><symbol id="arr-right" viewBox="0 0 10 16">
<path d="M0.501144 14.5856L1.80519 15.8896L9.62952 8.06533L1.8052 0.241006L0.501143 1.54506L7.02141 8.06533L0.501144 14.5856Z" fill="#212B31"/>
</symbol><symbol id="arrow" viewBox="0 0 20 10">
<path d="M0 6L16.17 6L13.59 8.59L15 10L20 5L15 0L13.59 1.41L16.17 4L1.74846e-07 4L0 6Z"/>
</symbol><symbol id="battery" viewBox="0 0 25 12">
<path opacity="0.35" d="M0.5 3.00004C0.5 1.80342 1.47005 0.833374 2.66667 0.833374H19.3333C20.53 0.833374 21.5 1.80342 21.5 3.00004V9.00004C21.5 10.1967 20.53 11.1667 19.3333 11.1667H2.66667C1.47005 11.1667 0.5 10.1967 0.5 9.00004V3.00004Z" stroke="black"/>
<path opacity="0.4" d="M23 4.00003V8.00003C23.8047 7.66125 24.328 6.87316 24.328 6.00003C24.328 5.1269 23.8047 4.33881 23 4.00003Z" fill="black"/>
<path d="M2 3.66671C2 2.93033 2.59695 2.33337 3.33333 2.33337H18.6667C19.403 2.33337 20 2.93033 20 3.66671V8.33337C20 9.06975 19.403 9.66671 18.6667 9.66671H3.33333C2.59695 9.66671 2 9.06975 2 8.33337V3.66671Z" fill="black"/>
</symbol><symbol id="check" viewBox="0 0 12 10">
<path d="M10.3035 0.764253C10.5718 0.448647 11.0451 0.41027 11.3607 0.678535C11.6763 0.946799 11.7147 1.42012 11.4464 1.73572L5.07144 9.23572C4.79896 9.55628 4.31616 9.59005 4.00171 9.31055L0.626711 6.31055C0.317124 6.03536 0.289238 5.5613 0.564426 5.25172C0.839615 4.94213 1.31367 4.91424 1.62326 5.18943L4.42515 7.68L10.3035 0.764253Z" fill="white"/>
</symbol><symbol id="dashed-bottom-desktop" viewBox="0 0 127 227">
<mask id="mask0" mask-type="alpha" maskUnits="userSpaceOnUse" x="0" y="0" width="127" height="227">
<rect width="127" height="227">
</rect></mask>
<g mask="url(#mask0)">
<path d="M234 17.698H115V205.825H22.379V17.6979L-146 17.698H-205.251H-311.812V304H-640V40.8283" stroke-width="3" stroke-dasharray="10 10"/>
</g>
</symbol><symbol id="dashed-bottom" viewBox="0 0 108 116">
<path d="M106 0.5V58L1.5 58L1.5 116" stroke-width="3" stroke-dasharray="10 10"/>
</symbol><symbol id="dashed-top-desktop" viewBox="0 0 437 291">
<path d="M437 2H330.377V289H2V25.1867" stroke-width="3" stroke-dasharray="10 10"/>
</symbol><symbol id="dashed-top" viewBox="0 0 272 125">
<mask id="mask0" mask-type="alpha" maskUnits="userSpaceOnUse" x="0" y="0" width="272" height="125">
<rect width="272" height="125"/>
</mask>
<g mask="url(#mask0)">
<path d="M11 -51L11 55.6226H266V219.811H128V377.5V435H23.5L23.5 493" stroke-width="3" stroke-dasharray="10 10"/>
</g>
</symbol><symbol id="hamburger" viewBox="0 0 30 20">
<path d="M0 3.33333V0H30V3.33333H0Z" fill="#212B31"/>
<path d="M0 11.6667H30V8.33333H0V11.6667Z" fill="#212B31"/>
<path d="M0 20H30V16.6667H0V20Z" fill="#212B31"/>
</symbol><symbol id="logo-footer-old" viewBox="0 0 113 86">
<path d="M6.72884 5.61247V80.0168H43.7275V73.6572H50.6106L50.5192 77.2888V86H0V0H50.6106V12.0937H43.7275V5.61247H6.72884Z" fill="#19E0BE"/>
<path d="M25.7155 39.6787C24.6524 39.6787 23.6834 39.4741 22.8087 39.0649C21.9474 38.6421 21.2005 38.0828 20.568 37.3871C19.9354 36.6779 19.451 35.8867 19.1145 35.0138C18.7781 34.1271 18.6099 33.2132 18.6099 32.2721C18.6099 31.3173 18.7848 30.4034 19.1347 29.5304C19.4981 28.6438 19.996 27.8595 20.6285 27.1774C21.2745 26.4818 22.0348 25.9362 22.9096 25.5406C23.7843 25.145 24.7398 24.9473 25.7761 24.9473C26.8392 24.9473 27.8015 25.1587 28.6628 25.5815C29.5375 25.9907 30.2844 26.55 30.9035 27.2593C31.536 27.9686 32.0204 28.7665 32.3569 29.6531C32.6933 30.5261 32.8616 31.4196 32.8616 32.3334C32.8616 33.2883 32.6799 34.209 32.3165 35.0956C31.9666 35.9686 31.4687 36.7529 30.8227 37.4485C30.1902 38.1305 29.4366 38.6762 28.5618 39.0854C27.7005 39.4809 26.7518 39.6787 25.7155 39.6787ZM21.981 32.313C21.981 33.0632 22.1223 33.7725 22.4049 34.4409C22.6875 35.0956 23.1115 35.6344 23.6767 36.0572C24.2419 36.4801 24.9282 36.6915 25.7357 36.6915C26.5701 36.6915 27.2632 36.4733 27.8149 36.0368C28.3801 35.6003 28.7973 35.0479 29.0665 34.3795C29.3491 33.6975 29.4904 32.995 29.4904 32.2721C29.4904 31.5219 29.3424 30.8194 29.0463 30.1647C28.7637 29.4963 28.3398 28.9575 27.7745 28.5483C27.2228 28.1391 26.5432 27.9345 25.7357 27.9345C24.9013 27.9345 24.2015 28.1527 23.6363 28.5892C23.0845 29.0121 22.6674 29.5577 22.3847 30.226C22.1156 30.8944 21.981 31.5901 21.981 32.313Z" fill="white"/>
<path d="M34.8351 39.5559V25.0291H38.1255V30.6557H39.256L43.2529 25.0291H46.9268L41.7995 32.047L47.3709 39.5559H43.3538L39.155 33.7043H38.1255V39.5559H34.8351Z" fill="white"/>
<path d="M61.4205 25.0291V39.5559H58.1099V33.602H52.3971V39.5559H49.0865V25.0291H52.3971V30.6557H58.1099V25.0291H61.4205Z" fill="white"/>
<path d="M67.7806 25.0291H71.3536L76.2792 39.5559H72.8878L71.7776 36.3028H67.3163L66.2263 39.5559H62.8349L67.7806 25.0291ZM71.2325 33.9907L69.557 28.4051L67.8412 33.9907H71.2325Z" fill="white"/>
<path d="M19.4981 62.7443V48.2175H31.4283V62.7443H28.1177V51.1638H22.8087V62.7443H19.4981Z" fill="white"/>
<path d="M34.2423 62.7443V48.2175H40.3588C41.0451 48.2175 41.6709 48.3607 42.2361 48.6472C42.8148 48.92 43.3128 49.2951 43.73 49.7725C44.1471 50.2362 44.4701 50.7614 44.6989 51.3479C44.9277 51.9344 45.0421 52.5278 45.0421 53.128C45.0421 53.9737 44.8469 54.7716 44.4567 55.5218C44.0799 56.272 43.5483 56.8858 42.8619 57.3633C42.1756 57.827 41.3749 58.0589 40.4597 58.0589H37.5529V62.7443H34.2423ZM37.5529 55.1331H40.2579C40.6481 55.1331 40.9846 54.9626 41.2672 54.6216C41.5498 54.2806 41.6911 53.7827 41.6911 53.128C41.6911 52.4596 41.5229 51.9685 41.1864 51.6548C40.8635 51.3275 40.5136 51.1638 40.1367 51.1638H37.5529V55.1331Z" fill="white"/>
<path d="M56.8925 59.798V62.7443H46.8194V48.2175H56.7108V51.1638H50.13V53.9873H55.7823V56.7085H50.13V59.798H56.8925Z" fill="white"/>
<path d="M70.2082 62.7443V54.0896L67.1197 60.3914H65.3029L62.2144 54.0896V62.7443H58.9038V48.2175H62.497L66.2113 55.8083L69.9458 48.2175H73.5188V62.7443H70.2082Z" fill="white"/>
<path d="M76.3318 62.7443V48.2175H79.6424V53.2303H82.307C83.8951 53.2303 85.1332 53.6531 86.0214 54.4988C86.923 55.3445 87.3739 56.4971 87.3739 57.9566C87.3739 59.4025 86.9432 60.5619 86.0819 61.4349C85.2206 62.3078 84.0229 62.7443 82.4887 62.7443H76.3318ZM79.6424 60.0026H82.0042C82.6906 60.0026 83.1953 59.8117 83.5182 59.4297C83.8412 59.0478 84.0027 58.5568 84.0027 57.9566C84.0027 57.4383 83.8412 56.9813 83.5182 56.5858C83.2087 56.1766 82.704 55.972 82.0042 55.972H79.6424V60.0026Z" fill="white"/>
<path d="M99.2961 59.798V62.7443H89.223V48.2175H99.1144V51.1638H92.5336V53.9873H98.1858V56.7085H92.5336V59.798H99.2961Z" fill="white"/>
<path d="M101.307 62.7443V48.2175H107.424C108.11 48.2175 108.736 48.3607 109.301 48.6472C109.88 48.92 110.378 49.2951 110.795 49.7725C111.212 50.2362 111.535 50.7614 111.764 51.3479C111.993 51.9344 112.107 52.5278 112.107 53.128C112.107 53.9737 111.912 54.7716 111.522 55.5218C111.145 56.272 110.613 56.8858 109.927 57.3633C109.241 57.827 108.44 58.0589 107.525 58.0589H104.618V62.7443H101.307ZM104.618 55.1331H107.323C107.713 55.1331 108.05 54.9626 108.332 54.6216C108.615 54.2806 108.756 53.7827 108.756 53.128C108.756 52.4596 108.588 51.9685 108.251 51.6548C107.928 51.3275 107.579 51.1638 107.202 51.1638H104.618V55.1331Z" fill="white"/>
</symbol><symbol id="logo-footer" viewBox="0 0 207 152">
<path d="M11.8928 9.91972V141.425H77.2858V130.185H89.4513L89.2897 136.603V152H0V0H89.4513V21.375H77.2858V9.91972H11.8928Z" fill="#19E0BE"/>
<path d="M49.6611 58.1226C49.6611 60.5721 49.2282 62.7197 48.3623 64.5654C47.4964 66.4111 46.2546 67.8353 44.6367 68.8379C43.0303 69.8405 41.1846 70.3418 39.0996 70.3418C37.0374 70.3418 35.1974 69.8462 33.5796 68.855C31.9618 67.8638 30.7085 66.451 29.8198 64.6167C28.9312 62.771 28.4811 60.6519 28.4697 58.2593V57.0288C28.4697 54.5793 28.9084 52.4259 29.7856 50.5688C30.6743 48.7004 31.9219 47.2705 33.5283 46.2793C35.1462 45.2767 36.9919 44.7754 39.0654 44.7754C41.139 44.7754 42.979 45.2767 44.5854 46.2793C46.2033 47.2705 47.4508 48.7004 48.3281 50.5688C49.2168 52.4259 49.6611 54.5736 49.6611 57.0117V58.1226ZM44.4658 56.9946C44.4658 54.3856 43.9987 52.4032 43.0645 51.0474C42.1302 49.6916 40.7972 49.0137 39.0654 49.0137C37.3451 49.0137 36.0177 49.6859 35.0835 51.0303C34.1493 52.3633 33.6764 54.3229 33.665 56.9092V58.1226C33.665 60.6632 34.1322 62.6343 35.0664 64.0356C36.0007 65.437 37.3451 66.1377 39.0996 66.1377C40.82 66.1377 42.1416 65.4655 43.0645 64.1211C43.9873 62.7653 44.4544 60.7943 44.4658 58.208V56.9946Z" fill="white"/>
<path d="M62.5544 59.8315H59.5979V70H54.4709V45.1172H59.5979V55.0806H61.9392L68.0231 45.1172H74.278L66.6047 56.8921L75.0812 70H68.9631L62.5544 59.8315Z" fill="white"/>
<path d="M98.3651 70H93.2382V59.3359H83.2406V70H78.1137V45.1172H83.2406V55.2002H93.2382V45.1172H98.3651V70Z" fill="white"/>
<path d="M118.265 64.873H109.276L107.567 70H102.115L111.378 45.1172H116.129L125.443 70H119.991L118.265 64.873ZM110.66 60.7202H116.881L113.754 51.4062L110.66 60.7202Z" fill="white"/>
<path d="M49.4902 115H44.3462V94.27H34.3828V115H29.2559V90.1172H49.4902V115Z" fill="white"/>
<path d="M60.1789 106.233V115H55.052V90.1172H64.759C66.6275 90.1172 68.2681 90.459 69.6809 91.1426C71.105 91.8262 72.1988 92.8003 72.9621 94.0649C73.7255 95.3182 74.1071 96.748 74.1071 98.3545C74.1071 100.793 73.2697 102.718 71.5949 104.131C69.9315 105.532 67.6244 106.233 64.6735 106.233H60.1789ZM60.1789 102.08H64.759C66.1148 102.08 67.1459 101.761 67.8522 101.123C68.57 100.485 68.9289 99.5736 68.9289 98.3887C68.9289 97.1696 68.57 96.1841 67.8522 95.4321C67.1345 94.6802 66.1433 94.2928 64.8786 94.27H60.1789V102.08Z" fill="white"/>
<path d="M93.6654 104.216H83.8217V110.881H95.3744V115H78.6947V90.1172H95.3402V94.27H83.8217V100.2H93.6654V104.216Z" fill="white"/>
<path d="M106.131 90.1172L112.523 108.164L118.88 90.1172H125.614V115H120.47V108.198L120.983 96.4575L114.266 115H110.746L104.046 96.4746L104.559 108.198V115H99.4322V90.1172H106.131Z" fill="white"/>
<path d="M146.061 90.1172H151.205V115H146.061V98.4741L136.097 115H130.971V90.1172H136.097V106.677L146.061 90.1172Z" fill="white"/>
<path d="M166.029 101.875L170.558 90.1172H176.095L167.396 110.642L166.696 111.992C165.408 114.237 163.437 115.359 160.783 115.359L158.988 115.291L158.937 111.172C159.21 111.217 159.655 111.24 160.27 111.24C160.988 111.24 161.563 111.115 161.996 110.864C162.44 110.614 162.811 110.152 163.107 109.48L163.739 107.856L155.006 90.1172H160.526L166.029 101.875Z" fill="white"/>
<path d="M186.562 90.1172L192.953 108.164L199.311 90.1172H206.044V115H200.9V108.198L201.413 96.4575L194.696 115H191.176L184.477 96.4746L184.989 108.198V115H179.863V90.1172H186.562Z" fill="white"/>
</symbol><symbol id="logo-old" viewBox="0 0 73 56">
<path d="M4.38157 3.65463V52.104H28.4737V47.9628H32.9557L32.8962 50.3276V56H0V0H32.9557V7.875H28.4737V3.65463H4.38157Z" fill="#19E0BE"/>
<path d="M16.745 25.8378C16.0527 25.8378 15.4217 25.7045 14.8521 25.4381C14.2913 25.1627 13.8049 24.7986 13.3931 24.3456C12.9812 23.8837 12.6657 23.3686 12.4467 22.8001C12.2276 22.2228 12.118 21.6277 12.118 21.0148C12.118 20.3931 12.232 19.798 12.4598 19.2296C12.6964 18.6522 13.0206 18.1415 13.4325 17.6974C13.8531 17.2444 14.3483 16.8892 14.9179 16.6316C15.4875 16.374 16.1097 16.2452 16.7844 16.2452C17.4767 16.2452 18.1033 16.3829 18.6641 16.6582C19.2337 16.9247 19.7201 17.2888 20.1232 17.7507C20.535 18.2126 20.8505 18.7322 21.0696 19.3095C21.2887 19.8779 21.3982 20.4597 21.3982 21.0548C21.3982 21.6766 21.2799 22.2761 21.0433 22.8534C20.8155 23.4219 20.4912 23.9326 20.0706 24.3856C19.6587 24.8297 19.168 25.1849 18.5984 25.4514C18.0375 25.709 17.4197 25.8378 16.745 25.8378ZM14.3132 21.0415C14.3132 21.53 14.4052 21.9919 14.5892 22.4271C14.7733 22.8534 15.0493 23.2043 15.4174 23.4796C15.7854 23.7549 16.2323 23.8926 16.7581 23.8926C17.3014 23.8926 17.7527 23.7505 18.112 23.4663C18.4801 23.1821 18.7517 22.8223 18.927 22.3871C19.111 21.943 19.203 21.4856 19.203 21.0148C19.203 20.5263 19.1067 20.0689 18.9139 19.6426C18.7298 19.2074 18.4538 18.8565 18.0857 18.5901C17.7265 18.3236 17.2839 18.1904 16.7581 18.1904C16.2148 18.1904 15.7591 18.3325 15.3911 18.6167C15.0318 18.892 14.7601 19.2473 14.5761 19.6825C14.4008 20.1178 14.3132 20.5707 14.3132 21.0415Z" fill="#212B31"/>
<path d="M22.6833 25.7578V16.2985H24.8259V19.9623H25.562L28.1647 16.2985H30.557L27.2182 20.8683L30.8462 25.7578H28.2304L25.4963 21.9475H24.8259V25.7578H22.6833Z" fill="#212B31"/>
<path d="M39.9947 16.2985V25.7578H37.839V21.8808H34.119V25.7578H31.9633V16.2985H34.119V19.9623H37.839V16.2985H39.9947Z" fill="#212B31"/>
<path d="M44.1362 16.2985H46.4628L49.6701 25.7578H47.4618L46.7389 23.6395H43.8339L43.1241 25.7578H40.9158L44.1362 16.2985ZM46.384 22.134L45.293 18.4968L44.1757 22.134H46.384Z" fill="#212B31"/>
<path d="M12.6964 40.8572V31.3979H20.4649V40.8572H18.3092V33.3164H14.8521V40.8572H12.6964Z" fill="#212B31"/>
<path d="M22.2973 40.8572V31.3979H26.2801C26.7271 31.3979 27.1345 31.4912 27.5026 31.6777C27.8794 31.8553 28.2037 32.0996 28.4753 32.4105C28.747 32.7124 28.9573 33.0544 29.1063 33.4363C29.2552 33.8183 29.3297 34.2046 29.3297 34.5954C29.3297 35.1461 29.2027 35.6657 28.9485 36.1542C28.7032 36.6427 28.357 37.0424 27.9101 37.3533C27.4632 37.6553 26.9418 37.8063 26.3459 37.8063H24.453V40.8572H22.2973ZM24.453 35.9011H26.2144C26.4685 35.9011 26.6876 35.7901 26.8717 35.568C27.0557 35.346 27.1477 35.0218 27.1477 34.5954C27.1477 34.1602 27.0382 33.8405 26.8191 33.6362C26.6088 33.423 26.3809 33.3164 26.1355 33.3164H24.453V35.9011Z" fill="#212B31"/>
<path d="M37.0463 38.9387V40.8572H30.4871V31.3979H36.928V33.3164H32.6428V35.155H36.3233V36.927H32.6428V38.9387H37.0463Z" fill="#212B31"/>
<path d="M45.717 40.8572V35.2216L43.7058 39.3251H42.5228L40.5117 35.2216V40.8572H38.3559V31.3979H40.6957L43.1143 36.3407L45.5461 31.3979H47.8727V40.8572H45.717Z" fill="#212B31"/>
<path d="M49.7044 40.8572V31.3979H51.8602V34.662H53.5953C54.6293 34.662 55.4355 34.9374 56.0139 35.4881C56.601 36.0388 56.8946 36.7893 56.8946 37.7397C56.8946 38.6812 56.6142 39.4361 56.0533 40.0046C55.4925 40.573 54.7126 40.8572 53.7136 40.8572H49.7044ZM51.8602 39.072H53.3981C53.845 39.072 54.1736 38.9476 54.384 38.6989C54.5943 38.4502 54.6994 38.1305 54.6994 37.7397C54.6994 37.4021 54.5943 37.1046 54.384 36.847C54.1824 36.5806 53.8538 36.4473 53.3981 36.4473H51.8602V39.072Z" fill="#212B31"/>
<path d="M64.6579 38.9387V40.8572H58.0987V31.3979H64.5396V33.3164H60.2544V35.155H63.9349V36.927H60.2544V38.9387H64.6579Z" fill="#212B31"/>
<path d="M65.9675 40.8572V31.3979H69.9504C70.3973 31.3979 70.8048 31.4912 71.1728 31.6777C71.5497 31.8553 71.8739 32.0996 72.1456 32.4105C72.4172 32.7124 72.6275 33.0544 72.7765 33.4363C72.9255 33.8183 73 34.2046 73 34.5954C73 35.1461 72.8729 35.6657 72.6188 36.1542C72.3734 36.6427 72.0273 37.0424 71.5803 37.3533C71.1334 37.6553 70.612 37.8063 70.0161 37.8063H68.1233V40.8572H65.9675ZM68.1233 35.9011H69.8847C70.1388 35.9011 70.3579 35.7901 70.5419 35.568C70.7259 35.346 70.8179 35.0218 70.8179 34.5954C70.8179 34.1602 70.7084 33.8405 70.4893 33.6362C70.279 33.423 70.0512 33.3164 69.8058 33.3164H68.1233V35.9011Z" fill="#212B31"/>
</symbol><symbol id="logo" viewBox="0 0 207 152">
<path d="M11.8928 9.91972V141.425H77.2858V130.185H89.4513L89.2897 136.603V152H0V0H89.4513V21.375H77.2858V9.91972H11.8928Z" fill="#19E0BE"/>
<path d="M49.6611 58.1226C49.6611 60.5721 49.2282 62.7197 48.3623 64.5654C47.4964 66.4111 46.2546 67.8353 44.6367 68.8379C43.0303 69.8405 41.1846 70.3418 39.0996 70.3418C37.0374 70.3418 35.1974 69.8462 33.5796 68.855C31.9618 67.8638 30.7085 66.451 29.8198 64.6167C28.9312 62.771 28.4811 60.6519 28.4697 58.2593V57.0288C28.4697 54.5793 28.9084 52.4259 29.7856 50.5688C30.6743 48.7004 31.9219 47.2705 33.5283 46.2793C35.1462 45.2767 36.9919 44.7754 39.0654 44.7754C41.139 44.7754 42.979 45.2767 44.5854 46.2793C46.2033 47.2705 47.4508 48.7004 48.3281 50.5688C49.2168 52.4259 49.6611 54.5736 49.6611 57.0117V58.1226ZM44.4658 56.9946C44.4658 54.3856 43.9987 52.4032 43.0645 51.0474C42.1302 49.6916 40.7972 49.0137 39.0654 49.0137C37.3451 49.0137 36.0177 49.6859 35.0835 51.0303C34.1493 52.3633 33.6764 54.3229 33.665 56.9092V58.1226C33.665 60.6632 34.1322 62.6343 35.0664 64.0356C36.0007 65.437 37.3451 66.1377 39.0996 66.1377C40.82 66.1377 42.1416 65.4655 43.0645 64.1211C43.9873 62.7653 44.4544 60.7943 44.4658 58.208V56.9946Z" fill="#030303"/>
<path d="M62.5544 59.8315H59.5979V70H54.4709V45.1172H59.5979V55.0806H61.9392L68.0231 45.1172H74.278L66.6047 56.8921L75.0812 70H68.9631L62.5544 59.8315Z" fill="#030303"/>
<path d="M98.3651 70H93.2382V59.3359H83.2406V70H78.1137V45.1172H83.2406V55.2002H93.2382V45.1172H98.3651V70Z" fill="#030303"/>
<path d="M118.265 64.873H109.276L107.567 70H102.115L111.378 45.1172H116.129L125.443 70H119.991L118.265 64.873ZM110.66 60.7202H116.881L113.754 51.4062L110.66 60.7202Z" fill="#030303"/>
<path d="M49.4902 115H44.3462V94.27H34.3828V115H29.2559V90.1172H49.4902V115Z" fill="#030303"/>
<path d="M60.1789 106.233V115H55.052V90.1172H64.759C66.6275 90.1172 68.2681 90.459 69.6809 91.1426C71.105 91.8262 72.1988 92.8003 72.9621 94.0649C73.7255 95.3182 74.1071 96.748 74.1071 98.3545C74.1071 100.793 73.2697 102.718 71.5949 104.131C69.9315 105.532 67.6244 106.233 64.6735 106.233H60.1789ZM60.1789 102.08H64.759C66.1148 102.08 67.1459 101.761 67.8522 101.123C68.57 100.485 68.9289 99.5736 68.9289 98.3887C68.9289 97.1696 68.57 96.1841 67.8522 95.4321C67.1345 94.6802 66.1433 94.2928 64.8786 94.27H60.1789V102.08Z" fill="#030303"/>
<path d="M93.6654 104.216H83.8217V110.881H95.3744V115H78.6947V90.1172H95.3402V94.27H83.8217V100.2H93.6654V104.216Z" fill="#030303"/>
<path d="M106.131 90.1172L112.523 108.164L118.88 90.1172H125.614V115H120.47V108.198L120.983 96.4575L114.266 115H110.746L104.046 96.4746L104.559 108.198V115H99.4322V90.1172H106.131Z" fill="#030303"/>
<path d="M146.061 90.1172H151.205V115H146.061V98.4741L136.097 115H130.971V90.1172H136.097V106.677L146.061 90.1172Z" fill="#030303"/>
<path d="M166.029 101.875L170.558 90.1172H176.095L167.396 110.642L166.696 111.992C165.408 114.237 163.437 115.359 160.783 115.359L158.988 115.291L158.937 111.172C159.21 111.217 159.655 111.24 160.27 111.24C160.988 111.24 161.563 111.115 161.996 110.864C162.44 110.614 162.811 110.152 163.107 109.48L163.739 107.856L155.006 90.1172H160.526L166.029 101.875Z" fill="#030303"/>
<path d="M186.562 90.1172L192.953 108.164L199.311 90.1172H206.044V115H200.9V108.198L201.413 96.4575L194.696 115H191.176L184.477 96.4746L184.989 108.198V115H179.863V90.1172H186.562Z" fill="#030303"/>
</symbol><symbol id="menu-close" viewBox="0 0 25 25">
<rect width="29.4562" height="3.68202" transform="matrix(0.710852 -0.703342 0.710852 0.703342 0.75 21.2178)" fill="#212B31"/>
<rect width="29.4562" height="3.68202" transform="matrix(0.710852 0.703342 -0.710852 0.703342 3.56104 0.942505)" fill="#212B31"/>
</symbol><symbol id="mobile-signal" viewBox="0 0 18 12">
<path fill-rule="evenodd" clip-rule="evenodd" d="M16.6666 0.666626H15.6666C15.1143 0.666626 14.6666 1.11434 14.6666 1.66663V10.3333C14.6666 10.8856 15.1143 11.3333 15.6666 11.3333H16.6666C17.2189 11.3333 17.6666 10.8856 17.6666 10.3333V1.66663C17.6666 1.11434 17.2189 0.666626 16.6666 0.666626ZM11 2.99996H12C12.5522 2.99996 13 3.44767 13 3.99996V10.3333C13 10.8856 12.5522 11.3333 12 11.3333H11C10.4477 11.3333 9.99996 10.8856 9.99996 10.3333V3.99996C9.99996 3.44767 10.4477 2.99996 11 2.99996ZM7.33329 5.33329H6.33329C5.78101 5.33329 5.33329 5.78101 5.33329 6.33329V10.3333C5.33329 10.8856 5.78101 11.3333 6.33329 11.3333H7.33329C7.88558 11.3333 8.33329 10.8856 8.33329 10.3333V6.33329C8.33329 5.78101 7.88558 5.33329 7.33329 5.33329ZM2.66663 7.33329H1.66663C1.11434 7.33329 0.666626 7.78101 0.666626 8.33329V10.3333C0.666626 10.8856 1.11434 11.3333 1.66663 11.3333H2.66663C3.21891 11.3333 3.66663 10.8856 3.66663 10.3333V8.33329C3.66663 7.78101 3.21891 7.33329 2.66663 7.33329Z" fill="black"/>
</symbol><symbol id="quotes" viewBox="0 0 56 40">
<path d="M31.469 40V23.2298C31.469 15.2795 33.3687 9.4824 37.1681 5.83851C41.0502 2.1118 46.7906 0.165634 54.3894 0L56 7.82609C47.2448 8.73706 43.1976 12.8364 43.8584 20.1242H51.5398V40H31.469ZM0 40V23.2298C0 15.2795 1.89971 9.4824 5.69912 5.83851C9.58112 2.1118 15.3215 0.165634 22.9204 0L24.531 7.82609C15.7758 8.73706 11.7286 12.8364 12.3894 20.1242H20.0708V40H0Z" fill="#19E0BE"/>
</symbol><symbol id="stages-1" viewBox="0 0 48 48">
<path d="M47.6993 12.5873L35.4127 0.300739C35.0117 -0.100246 34.3639 -0.100246 33.9629 0.300739L0.300739 33.9629C-0.100246 34.3639 -0.100246 35.0117 0.300739 35.4127L12.5873 47.6993C12.9883 48.1002 13.6361 48.1002 14.0371 47.6993L47.6993 14.0371C48.1002 13.6361 48.1002 12.9883 47.6993 12.5873ZM13.3071 45.5195L2.48045 34.6929L10.6133 26.5601L14.3044 30.2513C14.6951 30.6625 15.3531 30.6728 15.7541 30.2718C16.1654 29.8811 16.1756 29.2231 15.7747 28.8221C15.7644 28.8118 15.7644 28.8118 15.7541 28.8015L12.063 25.1207L14.7465 22.4372L20.5042 28.1949C20.9052 28.5959 21.5632 28.5959 21.9539 28.1846C22.3549 27.7837 22.3549 27.1359 21.9539 26.7349L16.1962 20.9772L18.8797 18.2937L22.5708 21.9745C22.9718 22.3755 23.6196 22.3755 24.0206 21.9745C24.4215 21.5735 24.4215 20.9258 24.0206 20.5248L20.3294 16.844L23.013 14.1604L28.7707 19.9182C29.1717 20.3192 29.8194 20.3192 30.2204 19.9182C30.6214 19.5172 30.6214 18.8694 30.2204 18.4685L24.4627 12.7107L27.1462 10.0272L30.8373 13.7183C31.2383 14.1193 31.886 14.1296 32.287 13.7286C32.688 13.3276 32.6983 12.6799 32.2973 12.2789C32.2973 12.2789 32.2973 12.2789 32.287 12.2686L28.6268 8.54664L31.3103 5.86312L37.068 11.6209C37.469 12.0218 38.1167 12.0218 38.5177 11.6209C38.9187 11.2199 38.9187 10.5721 38.5177 10.1711L32.76 4.41341L34.6929 2.48045L45.5195 13.3071L13.3071 45.5195Z" fill="#212B31"/>
<path d="M14.1192 34.0657C12.8237 32.7805 10.7365 32.7805 9.45133 34.0657C8.16612 35.3612 8.16612 37.4484 9.45133 38.7336C10.7365 40.0188 12.834 40.0188 14.1192 38.7336C15.4044 37.4484 15.4044 35.3612 14.1192 34.0657ZM12.7723 37.253C12.7518 37.2736 12.7209 37.3044 12.6592 37.2942C12.176 37.7774 11.3843 37.7774 10.8908 37.2942C10.4075 36.8109 10.4075 36.0192 10.8908 35.5257C11.374 35.0425 12.1657 35.0425 12.6592 35.5257C13.163 35.9884 13.235 36.7492 12.7723 37.253Z" fill="#212B31"/>
</symbol><symbol id="stages-2" viewBox="0 0 48 48">
<g clip-path="url(#clip0)">
<path d="M25.5062 48H22.4937C20.0572 48 18.0749 46.0177 18.0749 43.5813V42.5621C17.0391 42.2312 16.0327 41.8134 15.0658 41.3131L14.3436 42.0353C12.5943 43.7868 9.79219 43.7354 8.09372 42.0347L5.96456 39.9056C4.26309 38.206 4.21416 35.4049 5.96513 33.6558L6.68681 32.9341C6.18647 31.9672 5.76881 30.961 5.43778 29.925H4.41872C1.98234 29.925 0 27.9427 0 25.5063V22.4937C0 20.0572 1.98234 18.075 4.41881 18.075H5.43788C5.76891 17.0391 6.18656 16.0328 6.68691 15.0659L5.96466 14.3438C4.21472 12.5957 4.263 9.79425 5.96522 8.09391L8.09456 5.96466C9.79697 4.25991 12.5984 4.21734 14.3443 5.96522L15.0659 6.68681C16.0328 6.18656 17.0392 5.76881 18.075 5.43778V4.41872C18.075 1.98225 20.0573 0 22.4938 0H25.5063C27.9427 0 29.925 1.98225 29.925 4.41872V5.43788C30.9608 5.76881 31.9672 6.18656 32.9341 6.68691L33.6563 5.96466C35.4056 4.21322 38.2077 4.26459 39.9062 5.96531L42.0353 8.09437C43.7368 9.79397 43.7858 12.5951 42.0348 14.3442L41.3131 15.0659C41.8134 16.0328 42.2311 17.039 42.5621 18.075H43.5812C46.0177 18.075 48 20.0572 48 22.4937V25.5063C48 27.9427 46.0177 29.925 43.5812 29.925H42.5621C42.2311 30.9609 41.8134 31.9672 41.3131 32.9341L42.0353 33.6563C43.7853 35.4044 43.737 38.2058 42.0348 39.9062L39.9054 42.0354C38.203 43.7402 35.4016 43.7827 33.6557 42.0349L32.9341 41.3133C31.9672 41.8135 30.9608 42.2313 29.925 42.5623V43.5815C29.925 46.0177 27.9428 48 25.5062 48ZM15.536 38.3597C16.8791 39.154 18.3248 39.7541 19.8326 40.1433C20.4536 40.3035 20.8875 40.8636 20.8875 41.5049V43.5813C20.8875 44.4669 21.6082 45.1875 22.4938 45.1875H25.5063C26.3919 45.1875 27.1126 44.4669 27.1126 43.5813V41.5049C27.1126 40.8636 27.5465 40.3035 28.1675 40.1433C29.6753 39.7541 31.121 39.154 32.4641 38.3597C33.0168 38.0329 33.7204 38.1217 34.1744 38.5758L35.6452 40.0466C36.2793 40.6815 37.2976 40.6668 37.9162 40.0473L40.0468 37.9167C40.6639 37.3004 40.6845 36.2819 40.0474 35.6456L38.576 34.1742C38.122 33.7203 38.0332 33.0166 38.3599 32.464C39.1542 31.121 39.7542 29.6753 40.1434 28.1674C40.3037 27.5464 40.8638 27.1126 41.505 27.1126H43.5813C44.4669 27.1126 45.1876 26.392 45.1876 25.5064V22.4938C45.1876 21.6082 44.4669 20.8876 43.5813 20.8876H41.505C40.8637 20.8876 40.3037 20.4537 40.1434 19.8328C39.7542 18.3248 39.1541 16.8792 38.3599 15.5362C38.0332 14.9836 38.122 14.2799 38.576 13.826L40.0468 12.3551C40.6826 11.7201 40.666 10.7019 40.0474 10.084L37.9169 7.95356C37.2994 7.33519 36.2809 7.31709 35.6458 7.953L34.1745 9.42441C33.7206 9.87844 33.0167 9.96731 32.4642 9.6405C31.1211 8.84616 29.6754 8.24606 28.1676 7.85691C27.5466 7.69669 27.1127 7.13662 27.1127 6.49528V4.41872C27.1127 3.53306 26.392 2.8125 25.5064 2.8125H22.4939C21.6082 2.8125 20.8876 3.53306 20.8876 4.41872V6.49509C20.8876 7.13644 20.4537 7.6965 19.8327 7.85672C18.3248 8.24588 16.8792 8.84597 15.5361 9.64031C14.9833 9.96703 14.2797 9.87816 13.8258 9.42422L12.355 7.95337C11.7209 7.3185 10.7025 7.33322 10.084 7.95272L7.95337 10.0833C7.33631 10.6996 7.31569 11.718 7.95281 12.3544L9.42422 13.8258C9.87816 14.2797 9.96703 14.9834 9.64031 15.536C8.84597 16.879 8.24597 18.3247 7.85681 19.8326C7.6965 20.4536 7.13644 20.8874 6.49519 20.8874H4.41881C3.53316 20.8875 2.8125 21.6081 2.8125 22.4937V25.5063C2.8125 26.3919 3.53316 27.1125 4.41881 27.1125H6.49509C7.13644 27.1125 7.69641 27.5464 7.85672 28.1673C8.24588 29.6752 8.84597 31.1209 9.64022 32.4639C9.96694 33.0165 9.87806 33.7202 9.42413 34.1741L7.95328 35.645C7.31747 36.28 7.33406 37.2982 7.95272 37.9161L10.0832 40.0465C10.7007 40.6649 11.7192 40.683 12.3543 40.0471L13.8256 38.5757C14.1601 38.2413 14.856 37.9575 15.536 38.3597Z" fill="#212B31"/>
<path d="M24 34.4436C18.2412 34.4436 13.5563 29.7586 13.5563 23.9999C13.5563 18.2412 18.2412 13.5562 24 13.5562C29.7588 13.5562 34.4438 18.2412 34.4438 23.9999C34.4438 29.7586 29.7588 34.4436 24 34.4436ZM24 16.3687C19.7921 16.3687 16.3688 19.792 16.3688 23.9999C16.3688 28.2078 19.7921 31.6311 24 31.6311C28.2079 31.6311 31.6313 28.2078 31.6313 23.9999C31.6313 19.792 28.208 16.3687 24 16.3687Z" fill="#212B31"/>
</g>

</symbol><symbol id="stages-3" viewBox="0 0 34 48">
<path d="M3.06453 8.30402L3.05824 8.30908L3.05254 8.31479C2.91388 8.45345 2.75076 8.68331 2.75076 8.93655V44.5194C2.75076 44.7468 2.82724 44.9481 2.97196 45.0928C3.11668 45.2375 3.3179 45.314 3.54537 45.314H29.8457C30.0732 45.314 30.2744 45.2375 30.4191 45.0928C30.5639 44.9481 30.6403 44.7468 30.6403 44.5194V8.93655C30.6403 8.82235 30.6211 8.72049 30.5791 8.62584C30.5373 8.53185 30.4763 8.45257 30.403 8.37925C30.3308 8.30704 27.2481 5.27413 22.3072 3.76508C17.3564 2.253 10.5516 2.2755 3.06453 8.30402ZM15.9009 43.7248H4.33999V32.2927H15.9009V43.7248ZM15.9009 30.7035H4.33999V18.9492H15.9009V30.7035ZM15.9009 17.3599H4.33999V9.33157C8.54919 6.01845 12.5031 4.7396 15.9009 4.51908V17.3599ZM29.0511 43.7248H17.4902V32.2927H29.0511V43.7248ZM29.0511 30.7035H17.4902V18.9492H29.0511V30.7035ZM29.0511 17.3599H17.4902V4.51511C23.6368 4.75892 28.009 8.36532 29.0511 9.32436V17.3599Z" fill="#212B31" stroke="#212B31" stroke-width="0.3"/>
<path d="M33.2622 6.55122C33.1333 6.4223 18.3071 -8.08157 0.257846 6.48676C0.128923 6.61568 0 6.80907 0 7.00245V47.3554C0 47.7422 0.257846 48.0001 0.644616 48.0001H32.811C33.1977 48.0001 33.4556 47.7422 33.4556 47.3554V7.00245C33.4556 6.80907 33.3911 6.68015 33.2622 6.55122ZM32.1664 46.7108H1.28923V7.32476C17.4691 -5.5031 30.3614 5.64876 32.1664 7.32476V46.7108Z" fill="#212B31"/>
<path d="M33.2622 6.55122C33.1333 6.4223 18.3071 -8.08157 0.257846 6.48676C0.128923 6.61568 0 6.80907 0 7.00245V47.3554C0 47.7422 0.257846 48.0001 0.644616 48.0001H32.811C33.1977 48.0001 33.4556 47.7422 33.4556 47.3554V7.00245C33.4556 6.80907 33.3911 6.68015 33.2622 6.55122ZM32.1664 46.7108H1.28923V7.32476C17.4691 -5.5031 30.3614 5.64876 32.1664 7.32476V46.7108Z" stroke="#212B31"/>
</symbol><symbol id="stages-arr1" viewBox="0 0 274 125">
<mask id="mask0" mask-type="alpha" maskUnits="userSpaceOnUse" x="0" y="0" width="274" height="125">
<rect width="274" height="125"/>
</mask>
<g mask="url(#mask0)">
<path d="M10 -41L10 65.6226H265V229.811H127L127 387.5V445H22.5L22.5 503" stroke-width="3" stroke-dasharray="10 10"/>
</g>
</symbol><symbol id="stages-arr2" viewBox="0 0 122 60">
<mask id="mask0" mask-type="alpha" maskUnits="userSpaceOnUse" x="0" y="0" width="122" height="60">
<rect x="0.5" y="0.5" width="121" height="59"/>
</mask>
<g mask="url(#mask0)">
<path d="M0 -459L0 -352.377H255V-188.189H117L117 -30.5V27L12.5 27L12.5 85" stroke-dasharray="10 10"/>
</g>
</symbol><symbol id="time" viewBox="0 0 29 12">
<path d="M4.32068 11.2563C7.00867 11.2563 8.60535 9.1543 8.60535 5.59473C8.60535 4.25439 8.349 3.12646 7.85828 2.25488C7.14783 0.899902 5.92468 0.16748 4.37927 0.16748C2.07947 0.16748 0.453491 1.71289 0.453491 3.88086C0.453491 5.91699 1.91833 7.39648 3.9325 7.39648C5.17029 7.39648 6.17371 6.81787 6.67175 5.81445H6.69373C6.69373 5.81445 6.72302 5.81445 6.73035 5.81445C6.745 5.81445 6.79626 5.81445 6.79626 5.81445C6.79626 8.23145 5.88074 9.67432 4.33533 9.67432C3.42712 9.67432 2.724 9.17627 2.4823 8.37793H0.599976C0.914917 10.1138 2.38708 11.2563 4.32068 11.2563ZM4.3866 5.89502C3.17078 5.89502 2.30652 5.03076 2.30652 3.82227C2.30652 2.64307 3.21472 1.74219 4.39392 1.74219C5.57312 1.74219 6.48132 2.65771 6.48132 3.85156C6.48132 5.03076 5.59509 5.89502 4.3866 5.89502Z" fill="black"/>
<path d="M11.6965 11.1538C12.3923 11.1538 12.8683 10.6558 12.8683 9.99658C12.8683 9.33008 12.3923 8.83936 11.6965 8.83936C11.008 8.83936 10.5246 9.33008 10.5246 9.99658C10.5246 10.6558 11.008 11.1538 11.6965 11.1538ZM11.6965 5.66064C12.3923 5.66064 12.8683 5.16992 12.8683 4.51074C12.8683 3.84424 12.3923 3.35352 11.6965 3.35352C11.008 3.35352 10.5246 3.84424 10.5246 4.51074C10.5246 5.16992 11.008 5.66064 11.6965 5.66064Z" fill="black"/>
<path d="M19.7241 11H21.5332V9.02979H22.9614V7.43311H21.5332V0.431152H18.8672C16.9995 3.24365 15.5127 5.59473 14.5605 7.34521V9.02979H19.7241V11ZM16.311 7.36719C17.5415 5.19922 18.6401 3.46338 19.6509 1.96924H19.7534V7.47705H16.311V7.36719Z" fill="black"/>
<path d="M26.99 11H28.8797V0.431152H26.9973L24.2361 2.36475V4.18115L26.8655 2.33545H26.99V11Z" fill="black"/>
</symbol><symbol id="Vector5" viewBox="0 0 259 544">
<path d="M2 0L2 106.623H257V270.811H119L119 428.5V486H14.5L14.5 544" stroke="#19E0BE" stroke-width="3" stroke-dasharray="10 10"/>
</symbol><symbol id="warranty-bg" viewBox="0 0 124 147">
<path d="M120.929 17.4801L63.239 0.18174C62.4312 -0.0605801 61.5703 -0.0605801 60.7622 0.18174L3.07053 17.4801C1.24815 18.0264 0 19.7032 0 21.605V85.032C0 93.2818 3.3417 101.727 9.93174 110.133C14.9648 116.552 21.9283 122.999 30.628 129.293C45.243 139.867 59.6344 146.353 60.24 146.624C60.7998 146.875 61.4002 147 62.0006 147C62.601 147 63.2013 146.875 63.7612 146.624C64.3665 146.353 78.7576 139.867 93.3726 129.293C102.072 122.999 109.035 116.552 114.069 110.133C120.659 101.727 124 93.2821 124 85.032V21.605C124 19.7032 122.752 18.0264 120.929 17.4801Z" fill="#19E0BE"/>
</symbol><symbol id="wifi" viewBox="0 0 16 12">
<path fill-rule="evenodd" clip-rule="evenodd" d="M8.33033 2.60802C10.5462 2.60811 12.6774 3.45955 14.2833 4.98635C14.4043 5.10422 14.5976 5.10274 14.7167 4.98302L15.8727 3.81635C15.933 3.75563 15.9666 3.67338 15.9661 3.58779C15.9656 3.50221 15.931 3.42036 15.87 3.36035C11.6549 -0.679198 5.0051 -0.679198 0.789998 3.36035C0.728939 3.42032 0.694296 3.50215 0.693733 3.58773C0.69317 3.67331 0.726734 3.75558 0.786998 3.81635L1.94333 4.98302C2.06236 5.10292 2.25581 5.10441 2.37666 4.98635C3.98282 3.45945 6.11422 2.60801 8.33033 2.60802ZM8.33033 6.40368C9.54782 6.40361 10.7219 6.85614 11.6243 7.67335C11.7464 7.78933 11.9387 7.78682 12.0577 7.66768L13.2123 6.50102C13.2731 6.43982 13.3069 6.3568 13.306 6.27054C13.3051 6.18427 13.2697 6.10196 13.2077 6.04202C10.4595 3.48563 6.20353 3.48563 3.45533 6.04202C3.39325 6.10196 3.35784 6.18432 3.35702 6.27061C3.35621 6.3569 3.39006 6.43991 3.451 6.50102L4.60533 7.66768C4.72432 7.78682 4.9166 7.78933 5.03866 7.67335C5.94054 6.85668 7.11365 6.40419 8.33033 6.40368ZM10.6433 8.9575C10.6451 9.04401 10.6111 9.12741 10.5493 9.18802L8.552 11.2037C8.49345 11.2629 8.41362 11.2963 8.33033 11.2963C8.24704 11.2963 8.16722 11.2629 8.10866 11.2037L6.111 9.18802C6.04929 9.12737 6.01534 9.04394 6.01717 8.95743C6.019 8.87092 6.05644 8.789 6.12067 8.73102C7.39624 7.65213 9.26443 7.65213 10.54 8.73102C10.6042 8.78905 10.6416 8.87099 10.6433 8.9575Z" fill="black"/>
</symbol></svg>