<svg width="34" height="48" fill="none" xmlns="http://www.w3.org/2000/svg"><path d="M3.065 8.304l-.007.005-.005.006c-.14.138-.302.368-.302.622v35.582c0 .228.076.43.221.574a.794.794 0 00.573.221h26.3a.794.794 0 00.574-.221.794.794 0 00.221-.574V8.937a.751.751 0 00-.06-.311.82.82 0 00-.177-.247c-.072-.072-3.155-3.105-8.096-4.614-4.95-1.512-11.755-1.49-19.242 4.539zM15.9 43.724H4.34v-11.43H15.9v11.432zm0-13.02H4.34V18.948H15.9v11.754zm0-13.344H4.34V9.332C8.55 6.018 12.503 4.74 15.9 4.519v12.84zm13.15 26.365H17.49V32.293h11.56v11.432zm0-13.022H17.49V18.95h11.56v11.754zm0-13.343H17.49V4.515c6.146.244 10.518 3.85 11.56 4.81v8.035z" fill="#212B31" stroke="#212B31" stroke-width=".3"/><path d="M33.262 6.551C33.133 6.422 18.307-8.082.258 6.487c-.13.129-.258.322-.258.515v40.353c0 .387.258.645.645.645H32.81c.387 0 .645-.258.645-.645V7.002a.585.585 0 00-.194-.45zm-1.096 40.16H1.29V7.325c16.18-12.828 29.072-1.676 30.877 0V46.71z" fill="#212B31"/><path d="M33.262 6.551C33.133 6.422 18.307-8.082.258 6.487c-.13.129-.258.322-.258.515v40.353c0 .387.258.645.645.645H32.81c.387 0 .645-.258.645-.645V7.002a.585.585 0 00-.194-.45zm-1.096 40.16H1.29V7.325c16.18-12.828 29.072-1.676 30.877 0V46.71z" stroke="#212B31"/></svg>