<svg width="48" height="48" fill="none" xmlns="http://www.w3.org/2000/svg"><path d="M47.7 12.587L35.412.301a1.024 1.024 0 00-1.45 0L.3 33.963a1.024 1.024 0 000 1.45l12.286 12.286c.401.401 1.05.401 1.45 0L47.7 14.037c.401-.4.401-1.049 0-1.45zM13.306 45.52L2.48 34.693l8.133-8.133 3.691 3.691c.391.412 1.05.422 1.45.02.411-.39.422-1.048.02-1.449l-.02-.02-3.691-3.681 2.683-2.684 5.758 5.758a1.015 1.015 0 001.45-.01c.4-.401.4-1.05 0-1.45l-5.758-5.758 2.684-2.683 3.69 3.68a1.024 1.024 0 101.45-1.45l-3.69-3.68 2.683-2.684 5.758 5.758a1.024 1.024 0 101.45-1.45l-5.758-5.757 2.683-2.684 3.691 3.691a1.024 1.024 0 101.46-1.44l-.01-.01-3.66-3.721 2.683-2.684 5.758 5.758a1.024 1.024 0 101.45-1.45L32.76 4.413l1.933-1.933L45.52 13.307 13.306 45.52z" fill="#212B31"/><path d="M14.12 34.066a3.308 3.308 0 00-4.669 0 3.308 3.308 0 000 4.668 3.308 3.308 0 004.668 0 3.308 3.308 0 000-4.668zm-1.348 3.187c-.02.02-.051.051-.113.041a1.26 1.26 0 01-1.768 0 1.26 1.26 0 010-1.768 1.26 1.26 0 011.768 0c.504.462.576 1.223.113 1.727z" fill="#212B31"/></svg>