<svg width="48" height="48" fill="none" xmlns="http://www.w3.org/2000/svg"><g clip-path="url(#clip0)" fill="#212B31"><path d="M25.506 48h-3.012a4.424 4.424 0 01-4.42-4.419v-1.019a19.382 19.382 0 01-3.008-1.249l-.722.722c-1.75 1.752-4.552 1.7-6.25 0l-2.13-2.13a4.418 4.418 0 01.001-6.25l.722-.72c-.5-.968-.918-1.974-1.25-3.01H4.42A4.424 4.424 0 010 25.506v-3.012a4.424 4.424 0 014.419-4.419h1.019a19.386 19.386 0 011.249-3.01l-.722-.721c-1.75-1.748-1.702-4.55 0-6.25l2.13-2.13a4.418 4.418 0 016.25.001l.72.722a19.4 19.4 0 013.01-1.25V4.42A4.424 4.424 0 0122.494 0h3.012a4.424 4.424 0 014.419 4.419v1.019a19.38 19.38 0 013.01 1.249l.721-.722c1.75-1.752 4.552-1.7 6.25 0l2.13 2.13a4.418 4.418 0 01-.001 6.25l-.722.72c.5.968.918 1.974 1.25 3.01h1.018A4.424 4.424 0 0148 22.494v3.012a4.424 4.424 0 01-4.419 4.419h-1.019a19.388 19.388 0 01-1.249 3.01l.722.721c1.75 1.748 1.702 4.55 0 6.25l-2.13 2.13a4.418 4.418 0 01-6.25-.001l-.72-.722c-.968.5-1.974.918-3.01 1.25v1.018A4.424 4.424 0 0125.506 48zm-9.97-9.64a16.58 16.58 0 004.297 1.783c.62.16 1.055.72 1.055 1.362v2.076c0 .886.72 1.606 1.606 1.606h3.012c.886 0 1.607-.72 1.607-1.606v-2.076c0-.641.434-1.202 1.055-1.362a16.58 16.58 0 004.296-1.783 1.406 1.406 0 011.71.216l1.471 1.47c.634.636 1.653.62 2.271.001l2.13-2.13a1.606 1.606 0 00.001-2.271l-1.471-1.472a1.406 1.406 0 01-.216-1.71 16.576 16.576 0 001.783-4.297c.16-.62.72-1.054 1.362-1.054h2.076c.886 0 1.607-.721 1.607-1.607v-3.012c0-.886-.721-1.606-1.607-1.606h-2.076a1.406 1.406 0 01-1.362-1.055 16.578 16.578 0 00-1.783-4.297 1.406 1.406 0 01.216-1.71l1.47-1.47a1.606 1.606 0 00.001-2.272l-2.13-2.13a1.606 1.606 0 00-2.271-.001l-1.471 1.471a1.406 1.406 0 01-1.71.216 16.576 16.576 0 00-4.297-1.783 1.406 1.406 0 01-1.055-1.362V4.42c0-.886-.721-1.606-1.607-1.606h-3.012c-.886 0-1.606.72-1.606 1.606v2.076c0 .641-.434 1.202-1.055 1.362a16.58 16.58 0 00-4.297 1.783 1.406 1.406 0 01-1.71-.216l-1.471-1.47a1.606 1.606 0 00-2.271-.001l-2.13 2.13a1.606 1.606 0 00-.001 2.271l1.471 1.472c.454.454.543 1.157.216 1.71a16.573 16.573 0 00-1.783 4.297 1.406 1.406 0 01-1.362 1.054H4.42c-.886 0-1.606.721-1.606 1.607v3.012c0 .886.72 1.607 1.606 1.607h2.076c.641 0 1.201.433 1.362 1.054a16.58 16.58 0 001.783 4.297 1.406 1.406 0 01-.216 1.71l-1.47 1.471a1.606 1.606 0 00-.001 2.271l2.13 2.13a1.606 1.606 0 002.271.001l1.472-1.471c.334-.335 1.03-.618 1.71-.216z"/><path d="M24 34.444c-5.759 0-10.444-4.685-10.444-10.444 0-5.759 4.685-10.444 10.444-10.444 5.759 0 10.444 4.685 10.444 10.444 0 5.759-4.685 10.444-10.444 10.444zm0-18.075c-4.208 0-7.631 3.423-7.631 7.63 0 4.209 3.423 7.632 7.631 7.632s7.631-3.423 7.631-7.631-3.423-7.631-7.631-7.631z"/></g><defs><clipPath id="clip0"><path fill="#fff" d="M0 0h48v48H0z"/></clipPath></defs></svg>