<svg width="29" height="12" fill="none" xmlns="http://www.w3.org/2000/svg"><path d="M4.32 11.256c2.689 0 4.285-2.102 4.285-5.661 0-1.34-.256-2.469-.747-3.34C7.148.9 5.925.167 4.38.167 2.08.167.453 1.713.453 3.881c0 2.036 1.465 3.515 3.48 3.515 1.237 0 2.24-.578 2.739-1.582h.124c0 2.417-.915 3.86-2.46 3.86-.909 0-1.612-.498-1.854-1.296H.6c.315 1.736 1.787 2.878 3.72 2.878zm.067-5.361c-1.216 0-2.08-.864-2.08-2.073 0-1.179.908-2.08 2.087-2.08 1.18 0 2.087.916 2.087 2.11 0 1.179-.886 2.043-2.094 2.043zm7.31 5.259c.695 0 1.171-.498 1.171-1.157 0-.667-.476-1.158-1.171-1.158-.689 0-1.172.491-1.172 1.158 0 .659.483 1.157 1.171 1.157zm0-5.493c.695 0 1.171-.491 1.171-1.15 0-.667-.476-1.157-1.171-1.157-.689 0-1.172.49-1.172 1.157 0 .659.483 1.15 1.171 1.15zM19.724 11h1.81V9.03h1.427V7.433h-1.428V.431h-2.666C17 3.244 15.513 5.595 14.56 7.345V9.03h5.164V11zm-3.413-3.633a79.584 79.584 0 013.34-5.398h.102v5.508h-3.442v-.11zM26.99 11h1.89V.431h-1.883l-2.76 1.934V4.18l2.629-1.846h.124V11z" fill="#000"/></svg>