<svg width="207" height="152" viewBox="0 0 207 152" fill="none" xmlns="http://www.w3.org/2000/svg">
<path d="M11.8928 9.91972V141.425H77.2858V130.185H89.4513L89.2897 136.603V152H0V0H89.4513V21.375H77.2858V9.91972H11.8928Z" fill="#19E0BE"/>
<path d="M49.6611 58.1226C49.6611 60.5721 49.2282 62.7197 48.3623 64.5654C47.4964 66.4111 46.2546 67.8353 44.6367 68.8379C43.0303 69.8405 41.1846 70.3418 39.0996 70.3418C37.0374 70.3418 35.1974 69.8462 33.5796 68.855C31.9618 67.8638 30.7085 66.451 29.8198 64.6167C28.9312 62.771 28.4811 60.6519 28.4697 58.2593V57.0288C28.4697 54.5793 28.9084 52.4259 29.7856 50.5688C30.6743 48.7004 31.9219 47.2705 33.5283 46.2793C35.1462 45.2767 36.9919 44.7754 39.0654 44.7754C41.139 44.7754 42.979 45.2767 44.5854 46.2793C46.2033 47.2705 47.4508 48.7004 48.3281 50.5688C49.2168 52.4259 49.6611 54.5736 49.6611 57.0117V58.1226ZM44.4658 56.9946C44.4658 54.3856 43.9987 52.4032 43.0645 51.0474C42.1302 49.6916 40.7972 49.0137 39.0654 49.0137C37.3451 49.0137 36.0177 49.6859 35.0835 51.0303C34.1493 52.3633 33.6764 54.3229 33.665 56.9092V58.1226C33.665 60.6632 34.1322 62.6343 35.0664 64.0356C36.0007 65.437 37.3451 66.1377 39.0996 66.1377C40.82 66.1377 42.1416 65.4655 43.0645 64.1211C43.9873 62.7653 44.4544 60.7943 44.4658 58.208V56.9946Z" fill="white"/>
<path d="M62.5544 59.8315H59.5979V70H54.4709V45.1172H59.5979V55.0806H61.9392L68.0231 45.1172H74.278L66.6047 56.8921L75.0812 70H68.9631L62.5544 59.8315Z" fill="white"/>
<path d="M98.3651 70H93.2382V59.3359H83.2406V70H78.1137V45.1172H83.2406V55.2002H93.2382V45.1172H98.3651V70Z" fill="white"/>
<path d="M118.265 64.873H109.276L107.567 70H102.115L111.378 45.1172H116.129L125.443 70H119.991L118.265 64.873ZM110.66 60.7202H116.881L113.754 51.4062L110.66 60.7202Z" fill="white"/>
<path d="M49.4902 115H44.3462V94.27H34.3828V115H29.2559V90.1172H49.4902V115Z" fill="white"/>
<path d="M60.1789 106.233V115H55.052V90.1172H64.759C66.6275 90.1172 68.2681 90.459 69.6809 91.1426C71.105 91.8262 72.1988 92.8003 72.9621 94.0649C73.7255 95.3182 74.1071 96.748 74.1071 98.3545C74.1071 100.793 73.2697 102.718 71.5949 104.131C69.9315 105.532 67.6244 106.233 64.6735 106.233H60.1789ZM60.1789 102.08H64.759C66.1148 102.08 67.1459 101.761 67.8522 101.123C68.57 100.485 68.9289 99.5736 68.9289 98.3887C68.9289 97.1696 68.57 96.1841 67.8522 95.4321C67.1345 94.6802 66.1433 94.2928 64.8786 94.27H60.1789V102.08Z" fill="white"/>
<path d="M93.6654 104.216H83.8217V110.881H95.3744V115H78.6947V90.1172H95.3402V94.27H83.8217V100.2H93.6654V104.216Z" fill="white"/>
<path d="M106.131 90.1172L112.523 108.164L118.88 90.1172H125.614V115H120.47V108.198L120.983 96.4575L114.266 115H110.746L104.046 96.4746L104.559 108.198V115H99.4322V90.1172H106.131Z" fill="white"/>
<path d="M146.061 90.1172H151.205V115H146.061V98.4741L136.097 115H130.971V90.1172H136.097V106.677L146.061 90.1172Z" fill="white"/>
<path d="M166.029 101.875L170.558 90.1172H176.095L167.396 110.642L166.696 111.992C165.408 114.237 163.437 115.359 160.783 115.359L158.988 115.291L158.937 111.172C159.21 111.217 159.655 111.24 160.27 111.24C160.988 111.24 161.563 111.115 161.996 110.864C162.44 110.614 162.811 110.152 163.107 109.48L163.739 107.856L155.006 90.1172H160.526L166.029 101.875Z" fill="white"/>
<path d="M186.562 90.1172L192.953 108.164L199.311 90.1172H206.044V115H200.9V108.198L201.413 96.4575L194.696 115H191.176L184.477 96.4746L184.989 108.198V115H179.863V90.1172H186.562Z" fill="white"/>
</svg>
